Coordinates
version=1
nRows=17
nColumns=33
inDegrees=yes

Units are S.I. units (second, meters, Newtons, ...)
Angles are in degrees.

endheader
time	ground_thorax_rot_x	ground_thorax_rot_y	ground_thorax_rot_z	ground_thorax_tx	ground_thorax_ty	ground_thorax_tz	clav_prot_r	clav_elev_r	scapula_abduction_r	scapula_elevation_r	scapula_upward_rot_r	scapula_winging_r	shoulder_elv_r	plane_of_elev_r	axial_rot_r	elbow_flexion_r	pro_sup_r	wrist_flex_r	wrist_dev_r	clav_prot_l	clav_elev_l	scapula_abduction_l	scapula_elevation_l	scapula_upward_rot_l	scapula_winging_l	shoulder_elv_l	plane_of_elev_l	axial_rot_l	elbow_flexion_l	pro_sup_l	wrist_flex_l	wrist_dev_l
      2.16000000	     -0.57897790	      1.77582569	     12.46940526	     -0.11085073	      1.03260273	      0.01491240	      8.81601566	    -10.08844726	     15.64826073	     -3.13347314	      0.38346842	     -2.99946143	    -53.52532584	    -74.90364746	     89.23876114	    -68.69447288	   -147.75468991	     47.78554724	    -24.46453511	      9.24612856	      0.19385383	    -10.79394671	    -21.97689680	    -34.93084443	     -2.12597368	     54.65195796	    -35.26100431	      4.31713192	     67.34107518	     22.37023680	     -1.77049675	    -24.99999983
      2.17000000	     -0.45862660	      1.74470466	     12.51346926	     -0.11086428	      1.03275708	      0.01500323	      8.81782783	    -10.01184475	     15.51338774	     -2.94471437	      0.09766705	     -2.96480023	    -53.67669654	    -74.88148085	     89.13190000	    -68.10461365	   -147.70498936	     47.67126350	    -24.50825092	      9.18219626	      0.14110564	    -10.72782648	    -22.04579727	    -35.17474314	     -2.19146369	     54.43744119	    -35.57816814	      4.26375939	     66.75714848	     22.47932953	     -1.77370670	    -24.99999983
      2.18000000	     -0.38034893	      1.70760434	     12.54947103	     -0.11097135	      1.03289987	      0.01509067	      8.83223277	     -9.96496384	     15.41807429	     -2.79728002	     -0.15208542	     -2.93549100	    -53.85934134	    -74.89305529	     89.06943810	    -67.50797430	   -147.57531777	     47.60319918	    -24.53065223	      9.14094140	      0.11123943	    -10.69286087	    -22.11464367	    -35.37487110	     -2.24059562	     54.25976612	    -35.86345700	      4.17567530	     66.08584474	     22.64845111	     -1.79093365	    -24.99999983
      2.19000000	     -0.30188636	      1.67605885	     12.58415918	     -0.11102651	      1.03299675	      0.01514704	      8.83386001	     -9.91819110	     15.31868285	     -2.66460683	     -0.36619815	     -2.90585617	    -54.00843762	    -74.88690370	     88.97611780	    -66.86879571	   -147.38383146	     47.56423849	    -24.54557359	      9.09680773	      0.09670003	    -10.64565926	    -22.18765655	    -35.55058515	     -2.29381241	     54.07784010	    -36.10509124	      4.08218770	     65.39127682	     22.86599757	     -1.82417634	    -24.99999983
      2.20000000	     -0.31631563	      1.78924280	     12.43636938	     -0.11055932	      1.03259858	      0.01533834	      8.79846870	     -9.41624843	     15.67712850	     -2.60046654	      0.56958837	     -3.28030578	    -55.67010418	    -74.21971733	     87.24084992	    -65.66187643	   -143.05759491	     49.04988258	    -24.99999983	      8.99921795	      0.75681468	    -10.24430511	    -22.49803524	    -34.81060754	     -2.41498797	     53.43218699	    -35.94501825	      3.76535225	     64.48866283	     26.52703274	     -3.86661216	    -24.99999983
      2.21000000	     -0.29722000	      1.69723096	     12.49774877	     -0.11078499	      1.03280036	      0.01537992	      8.85745741	     -9.48302184	     15.67245459	     -2.56549855	      0.34290445	     -3.24255186	    -55.84461257	    -74.24652804	     87.22464151	    -65.05776474	   -142.99993415	     48.92033888	    -24.99999983	      8.99160821	      0.65948588	    -10.28213581	    -22.50263289	    -35.02193497	     -2.42401794	     53.30666959	    -36.26124945	      3.68179390	     63.78850185	     26.65169285	     -3.85581209	    -24.99999983
      2.22000000	     -0.23159407	      1.66971724	     12.54010697	     -0.11086125	      1.03289612	      0.01541464	      8.88623870	     -9.49573942	     15.62271180	     -2.48812327	      0.13097215	     -3.21003632	    -55.93584941	    -74.23412215	     87.11695884	    -64.41958188	   -142.89076788	     48.81283089	    -24.99999983	      8.96325303	      0.58175867	    -10.26753917	    -22.50487222	    -35.18371804	     -2.45334863	     53.16712367	    -36.47868768	      3.62449408	     63.08442667	     26.81129325	     -3.85611455	    -24.99999983
      2.23000000	     -0.18535907	      1.63233061	     12.57900886	     -0.11098828	      1.03307194	      0.01545201	      8.91634482	     -9.52396173	     15.59157116	     -2.43826513	     -0.04876588	     -3.17891094	    -56.05374876	    -74.20761173	     87.03460453	    -63.80459282	   -142.69827364	     48.73807390	    -24.99999983	      8.93952224	      0.50497662	    -10.26132700	    -22.49246324	    -35.31570491	     -2.46525611	     53.02360530	    -36.63648582	      3.53079502	     62.29354895	     27.02918983	     -3.86352053	    -24.99999983
      2.24000000	     -0.13317986	      1.61527910	     12.60985705	     -0.11108940	      1.03321154	      0.01546309	      8.93755447	     -9.54244865	     15.56089121	     -2.39432627	     -0.19255195	     -3.15253304	    -56.14823477	    -74.17597354	     86.92585235	    -63.18449541	   -142.44164162	     48.68239315	    -24.99999983	      8.91547360	      0.44903846	    -10.24382686	    -22.48591510	    -35.41550164	     -2.48422165	     52.87260519	    -36.74295430	      3.43553888	     61.50781327	     27.28494979	     -3.88258817	    -24.99999983
      2.25000000	     -0.23209884	      1.67533547	     12.40533059	     -0.11081968	      1.03285646	      0.01552105	      8.98115291	     -9.18964648	     16.06041112	     -2.46389036	      0.74003422	     -3.52557563	    -57.36190910	    -73.50372286	     85.46809144	    -62.15721629	   -138.17035081	     49.42537616	    -24.99999983	      8.92654052	      1.05664660	    -10.03226072	    -22.71012577	    -34.61618434	     -2.51205050	     52.11173406	    -36.48519888	      3.41804617	     60.61609378	     30.50799654	     -5.49732051	    -24.99999983
      2.26000000	     -0.21947662	      1.63702815	     12.48180361	     -0.11101715	      1.03281464	      0.01557347	      9.03551145	     -9.21939495	     16.05680708	     -2.40426777	      0.53280176	     -3.50486943	    -57.47691484	    -73.52378737	     85.43206026	    -61.71167708	   -138.13532940	     49.31768194	    -24.99999983	      8.93282571	      0.95507998	    -10.07956253	    -22.66971325	    -34.74468621	     -2.50525469	     52.04499758	    -36.69477503	      3.33568845	     59.94813578	     30.61561544	     -5.46871921	    -24.99999983
      2.27000000	     -0.14238722	      1.63263292	     12.56249060	     -0.11115730	      1.03298243	      0.01555813	      9.07657465	     -9.25710470	     16.03762995	     -2.35795983	      0.34150706	     -3.47483526	    -57.53821705	    -73.52319222	     85.33164145	    -61.14279675	   -138.05565812	     49.19311137	    -24.99999983	      8.91330679	      0.83452782	    -10.08328490	    -22.60408929	    -34.85745889	     -2.50305257	     51.91114444	    -36.78061489	      3.23710849	     59.27777713	     30.75001277	     -5.44282676	    -24.99999983
      2.28000000	     -0.11654606	      1.61849658	     12.59136091	     -0.11132132	      1.03304306	      0.01561220	      9.10940691	     -9.28830980	     16.03474034	     -2.33198596	      0.21216284	     -3.45578639	    -57.61079811	    -73.49395897	     85.26190089	    -60.69295159	   -137.92896968	     49.10332467	    -24.99999983	      8.90910085	      0.74353276	    -10.09923072	    -22.54370284	    -34.92188344	     -2.49666151	     51.82509354	    -36.85291122	      3.17651668	     58.60465770	     30.90019589	     -5.42457323	    -24.99999983
      2.29000000	     -0.11785031	      1.64647799	     12.44592786	     -0.11137633	      1.03291903	      0.01570751	      9.23672272	     -9.01733914	     16.59676622	     -2.39804987	      0.96145521	     -3.81254695	    -58.73838285	    -72.96581076	     84.01504763	    -59.95730566	   -135.01178564	     49.03306668	    -24.99999983	      9.01789479	      0.97225763	    -10.15894952	    -22.46622541	    -34.29990143	     -2.38338334	     51.04198840	    -36.73221245	      3.34535078	     57.84126512	     32.97434424	     -6.53788221	    -24.99999983
      2.30000000	     -0.05516436	      1.65961697	     12.54568623	     -0.11153329	      1.03294315	      0.01579730	      9.27670277	     -9.04301613	     16.57109999	     -2.33931985	      0.76439506	     -3.78357002	    -58.79659249	    -72.97607327	     83.93761574	    -59.52485738	   -134.98884576	     48.93508454	    -24.99999983	      9.00425779	      0.87617022	    -10.16332315	    -22.41564458	    -34.39274766	     -2.38670527	     50.95977843	    -36.80795323	      3.26381167	     57.37383751	     33.04082897	     -6.50434247	    -24.99999983
      2.31000000	     -0.07137957	      1.62945686	     12.42012030	     -0.11161713	      1.03240685	      0.01568123	      9.28259051	     -9.02429618	     16.54726334	     -2.29269879	      0.69206105	     -3.78167728	    -58.83247655	    -72.96623474	     83.94503013	    -59.46079424	   -134.98023357	     48.92776815	    -24.99999983	      8.99835942	      0.87119559	    -10.16103390	    -22.43045582	    -34.43184976	     -2.39100549	     50.92985521	    -36.84496480	      3.25041072	     57.32549621	     33.04793468	     -6.49917513	    -24.99999983
      2.32000000	     -0.00971282	      1.63443760	     12.67606420	     -0.11183019	      1.03290732	      0.01575999	      9.31619303	     -9.10002572	     16.51163098	     -2.27568878	      0.48937864	     -3.72828154	    -58.86951368	    -72.98107975	     83.85833344	    -58.71555664	   -134.85521658	     48.79002733	    -24.99999983	      8.97792565	      0.73145713	    -10.15464075	    -22.32257607	    -34.49766373	     -2.38613509	     50.84954033	    -36.86896348	      3.17926310	     56.52328448	     33.15832772	     -6.43133882	    -24.99999983
